<?xml version="1.0" encoding="UTF-8"?>
<svg width="84px" height="84px" viewBox="0 0 84 84" version="1.1" xmlns="http://www.w3.org/2000/svg" xmlns:xlink="http://www.w3.org/1999/xlink">
    <title>Group 30 Copy 3</title>
    <defs>
        <path d="M16.367,0 C7.312,0.089 0,7.456 0,16.533 L0,16.533 L0,63.269 C0,72.4 7.401,79.802 16.533,79.802 L16.533,79.802 L63.268,79.802 C72.399,79.802 79.801,72.4 79.801,63.269 L79.801,63.269 L79.801,16.533 C79.801,7.456 72.488,0.089 63.434,0 L63.434,0" id="path-1"></path>
        <path d="M16.367,0 C7.312,0.089 0,7.456 0,16.533 L0,16.533 L0,63.269 C0,72.4 7.401,79.802 16.533,79.802 L16.533,79.802 L63.268,79.802 C72.399,79.802 79.801,72.4 79.801,63.269 L79.801,63.269 L79.801,16.533 C79.801,7.456 72.488,0.089 63.434,0 L63.434,0" id="path-3"></path>
        <path d="M16.367,0 C7.312,0.089 0,7.456 0,16.533 L0,16.533 L0,63.269 C0,72.4 7.401,79.802 16.533,79.802 L16.533,79.802 L63.268,79.802 C72.399,79.802 79.801,72.4 79.801,63.269 L79.801,63.269 L79.801,16.533 C79.801,7.456 72.488,0.089 63.434,0 L63.434,0 L16.367,0 Z" id="path-5"></path>
        <path d="M16.367,0 C7.312,0.089 0,7.456 0,16.533 L0,16.533 L0,63.269 C0,72.4 7.401,79.802 16.533,79.802 L16.533,79.802 L63.268,79.802 C72.399,79.802 79.801,72.4 79.801,63.269 L79.801,63.269 L79.801,16.533 C79.801,7.456 72.488,0.089 63.434,0 L63.434,0" id="path-7"></path>
        <path d="M16.367,0 C7.312,0.089 0,7.456 0,16.533 L0,16.533 L0,63.269 C0,72.4 7.401,79.802 16.533,79.802 L16.533,79.802 L63.268,79.802 C72.399,79.802 79.801,72.4 79.801,63.269 L79.801,63.269 L79.801,16.533 C79.801,7.456 72.488,0.089 63.434,0 L63.434,0 L16.367,0 Z" id="path-9"></path>
        <path d="M16.367,0 C7.312,0.089 0,7.456 0,16.533 L0,16.533 L0,63.269 C0,72.4 7.401,79.802 16.533,79.802 L16.533,79.802 L63.268,79.802 C72.399,79.802 79.801,72.4 79.801,63.269 L79.801,63.269 L79.801,16.533 C79.801,7.456 72.488,0.089 63.434,0 L63.434,0" id="path-11"></path>
        <path d="M16.367,0 C7.312,0.089 0,7.456 0,16.533 L0,16.533 L0,63.269 C0,72.4 7.401,79.802 16.533,79.802 L16.533,79.802 L63.268,79.802 C72.399,79.802 79.801,72.4 79.801,63.269 L79.801,63.269 L79.801,16.533 C79.801,7.456 72.488,0.089 63.434,0 L63.434,0 L16.367,0 Z" id="path-13"></path>
        <path d="M16.367,0 C7.312,0.089 0,7.456 0,16.533 L0,16.533 L0,63.269 C0,72.4 7.401,79.802 16.533,79.802 L16.533,79.802 L63.268,79.802 C72.399,79.802 79.801,72.4 79.801,63.269 L79.801,63.269 L79.801,16.533 C79.801,7.456 72.488,0.089 63.434,0 L63.434,0 L16.367,0 Z" id="path-15"></path>
    </defs>
    <g id="Desktop" stroke="none" stroke-width="1" fill="none" fill-rule="evenodd">
        <g id="SES-Water-AR-Desktop-" transform="translate(-443.000000, -8282.000000)">
            <g id="Group-16" transform="translate(0.000000, 7963.000000)">
                <g id="Group-15" transform="translate(264.000000, 321.000000)">
                    <g id="Group-30-Copy-3" transform="translate(181.000000, 0.000000)">
                        <path d="M16.533,0 C7.402,0 0,7.402 0,16.533 L0,63.27 C0,72.4 7.402,79.803 16.533,79.803 L63.268,79.803 C72.399,79.803 79.801,72.4 79.801,63.27 L79.801,16.533 C79.801,7.402 72.399,0 63.268,0 L16.533,0 Z" id="Fill-1" fill="#FEFEFE"></path>
                        <g id="Group-27" transform="translate(0.000300, 0.000700)">
                            <g id="Group-5">
                                <mask id="mask-2" fill="white">
                                    <use xlink:href="#path-1"></use>
                                </mask>
                                <g id="Clip-4"></g>
                                <path d="M63.5831,79.802 L16.2171,79.802 C7.2971,79.802 0.0001,72.504 0.0001,63.584 L0.0001,16.218 C0.0001,7.298 7.2971,0 16.2171,0 L63.5831,0 C72.5031,0 79.8011,7.298 79.8011,16.218 L79.8011,63.584 C79.8011,72.504 72.5031,79.802 63.5831,79.802" id="Fill-3" fill="#211F5E" mask="url(#mask-2)"></path>
                            </g>
                            <g id="Group-8">
                                <mask id="mask-4" fill="white">
                                    <use xlink:href="#path-3"></use>
                                </mask>
                                <g id="Clip-7"></g>
                                <path d="M21.8988,50.9776 C20.0948,54.3326 18.2908,57.6856 16.4868,61.0406 C16.2338,61.7236 15.5438,63.8546 16.5058,66.0146 C16.8668,66.8246 17.3268,67.3406 17.4898,67.5166 C19.2818,69.4336 21.8828,69.3216 22.0808,69.3106 C22.4408,69.2886 25.5348,69.0516 26.8508,66.3626 C28.0218,63.9736 26.8118,61.6416 26.6808,61.3986 C25.0868,57.9246 23.4928,54.4516 21.8988,50.9776" id="Fill-6" fill="#FEFEFE" mask="url(#mask-4)"></path>
                            </g>
                            <g id="Group-11">
                                <mask id="mask-6" fill="white">
                                    <use xlink:href="#path-5"></use>
                                </mask>
                                <g id="Clip-10"></g>
                                <path d="M21.8988,50.9776 C20.0948,54.3326 18.2908,57.6856 16.4868,61.0406 C16.2338,61.7236 15.5438,63.8546 16.5058,66.0146 C16.8668,66.8246 17.3268,67.3406 17.4898,67.5166 C19.2818,69.4336 21.8828,69.3216 22.0808,69.3106 C22.4408,69.2886 25.5348,69.0516 26.8508,66.3626 C28.0218,63.9736 26.8118,61.6416 26.6808,61.3986 C25.0868,57.9246 23.4928,54.4516 21.8988,50.9776 Z" id="Stroke-9" stroke="#211F5E" stroke-width="1.469" mask="url(#mask-6)"></path>
                            </g>
                            <g id="Group-14">
                                <mask id="mask-8" fill="white">
                                    <use xlink:href="#path-7"></use>
                                </mask>
                                <g id="Clip-13"></g>
                                <path d="M63.4865,25.5212 L27.5365,25.5212 C25.8735,25.7162 21.5685,26.4602 18.7485,29.9722 C18.0295,30.8682 17.4545,31.7782 17.0195,32.7782 C16.0615,34.9762 15.9955,36.8862 15.9675,38.3032 C15.9045,41.5912 15.8385,45.1942 15.8225,49.2112 L27.8005,49.2112 C27.8175,46.5962 27.8335,43.9802 27.8505,41.3642 C27.8425,41.1752 27.8115,39.9492 28.7895,38.9992 C29.7905,38.0262 31.0485,38.1162 31.2325,38.1322 C42.0265,38.1082 52.8205,38.0842 63.6135,38.0602 C63.5715,33.8802 63.5285,29.7012 63.4865,25.5212" id="Fill-12" fill="#FEFEFE" mask="url(#mask-8)"></path>
                            </g>
                            <g id="Group-17">
                                <mask id="mask-10" fill="white">
                                    <use xlink:href="#path-9"></use>
                                </mask>
                                <g id="Clip-16"></g>
                                <path d="M63.4865,25.5212 L27.5365,25.5212 C25.8735,25.7162 21.5685,26.4602 18.7485,29.9722 C18.0295,30.8682 17.4545,31.7782 17.0195,32.7782 C16.0615,34.9762 15.9955,36.8862 15.9675,38.3032 C15.9045,41.5912 15.8385,45.1942 15.8225,49.2112 L27.8005,49.2112 C27.8175,46.5962 27.8335,43.9802 27.8505,41.3642 C27.8425,41.1752 27.8115,39.9492 28.7895,38.9992 C29.7905,38.0262 31.0485,38.1162 31.2325,38.1322 C42.0265,38.1082 52.8205,38.0842 63.6135,38.0602 C63.5715,33.8802 63.5285,29.7012 63.4865,25.5212 Z" id="Stroke-15" stroke="#211F5E" stroke-width="1.469" mask="url(#mask-10)"></path>
                            </g>
                            <g id="Group-20">
                                <mask id="mask-12" fill="white">
                                    <use xlink:href="#path-11"></use>
                                </mask>
                                <g id="Clip-19"></g>
                                <path d="M53.9216,14.9097 L34.7476,14.9097 C33.4296,14.9097 32.3516,13.8307 32.3516,12.5127 C32.3516,11.1947 33.4296,10.1167 34.7476,10.1167 L53.9216,10.1167 C55.2396,10.1167 56.3186,11.1947 56.3186,12.5127 C56.3186,13.8307 55.2396,14.9097 53.9216,14.9097" id="Fill-18" fill="#FEFEFE" mask="url(#mask-12)"></path>
                            </g>
                            <g id="Group-23">
                                <mask id="mask-14" fill="white">
                                    <use xlink:href="#path-13"></use>
                                </mask>
                                <g id="Clip-22"></g>
                                <path d="M53.9216,14.9097 L34.7476,14.9097 C33.4296,14.9097 32.3516,13.8307 32.3516,12.5127 C32.3516,11.1947 33.4296,10.1167 34.7476,10.1167 L53.9216,10.1167 C55.2396,10.1167 56.3186,11.1947 56.3186,12.5127 C56.3186,13.8307 55.2396,14.9097 53.9216,14.9097 Z" id="Stroke-21" stroke="#211F5E" stroke-width="1.469" mask="url(#mask-14)"></path>
                            </g>
                            <mask id="mask-16" fill="white">
                                <use xlink:href="#path-15"></use>
                            </mask>
                            <g id="Clip-25"></g>
                            <polygon id="Fill-24" fill="#FEFEFE" mask="url(#mask-16)" points="40.221 25.521 48.448 25.521 48.448 14.91 40.221 14.91"></polygon>
                            <polygon id="Stroke-26" stroke="#211F5E" stroke-width="1.469" mask="url(#mask-16)" points="48.4482 25.5211 40.2212 25.5211 40.2212 14.9101 48.4482 14.9101"></polygon>
                        </g>
                        <path d="M16.533,0 C7.402,0 0,7.402 0,16.533 L0,63.27 C0,72.4 7.402,79.803 16.533,79.803 L63.268,79.803 C72.399,79.803 79.801,72.4 79.801,63.27 L79.801,16.533 C79.801,7.402 72.399,0 63.268,0 L16.533,0 Z" id="Stroke-28" stroke="#FEFEFE" stroke-width="2.755"></path>
                    </g>
                </g>
            </g>
        </g>
    </g>
</svg>